<svg version="1.2" xmlns="http://www.w3.org/2000/svg" viewBox="0 0 69 69" width="69" height="69"><style>.s0{fill:#bc2222}</style><path fill-rule="evenodd" class="s0" d="m67.5 61.4c0.3 0.3 0.5 0.7 0.6 1.2c0 0.4-0.2 0.9-0.5 1.2l-4.4 4.4c-0.3 0.3-0.8 0.4-1.2 0.4h-0.1c-0.4 0-0.8-0.1-1.2-0.5c-2.3-2.5-14.5-15.4-18.8-19.8c-2.7-2.7-5.2-4.8-7.5-6.9l-10 9.9c-1.5 1.8-2.5 3.4-3.1 5c0 0-1.1 2.7-1.3 3.7c-0.4 2.3-1.3 4-2.7 5.4c-1.9 1.8-4.4 2.9-7 2.9c-2.6 0-5-1-6.9-2.8c-3.8-3.9-3.8-10.1 0-13.9c1.4-1.4 3.3-2.3 5.2-2.8c1-0.3 3.8-1.2 3.8-1.2c1.9-0.7 3.4-1.6 5-3.2l9.8-9.7c-3.8-3.9-7.4-8.4-7.6-8.7l-5.2-5.7l-7 6.4h-1.8l-5.2-5.1l0.1-1.8l11.4-12.6l12.3-6.9l2.7 2.7l-6.9 12.3l5.4 5c0.2 0.2 4.7 3.8 8.6 7.6l5.9-6c2-2.2 2.6-3.2 3.2-5c0 0 1.1-4 1.3-5.4c0.4-2.9 1.4-5.2 3.5-7.3c2.2-2.2 5.2-3.5 8.3-3.5h1.3l-4.9 8.9q0.5 1.2 1.4 2.1c1.6 1.6 3.9 2.4 6.2 2.2l5-9.2l0.7 1c3.4 4.7 2.9 11.2-1.2 15.3c-1.9 1.9-4.1 3-6.7 3.4c-1.5 0.2-6.1 1.4-6.1 1.4q-3 1.1-5 3.1l-6.2 6.1c2.1 2.4 4.3 4.8 7 7.5c4.4 4.4 17.3 16.6 19.8 18.9zm-18.6-41.5c4.1 4.1 10.7 4.1 14.7 0c3.3-3.3 4-8.3 1.8-12.3l-4.3 7.6l-0.3 0.1c-2.9 0.4-5.8-0.5-7.8-2.5q-1.1-1.1-1.8-2.5l-0.3-0.7l4-7.3c-2.3 0.3-4.3 1.3-6 3c-4 4-4 10.6 0 14.6zm-13.8 9c1.6 1.6 3.1 3.3 4.6 5l6.1-6.1c1.5-1.5 3.4-2.6 5.7-3.4l1.5-0.4c-1.9-0.5-3.7-1.5-5.1-3c-1.5-1.5-2.5-3.2-3-5.1l-0.4 1.4c-0.7 2.2-1.6 3.5-3.5 5.7zm-16.2-14.6l6.2-11.1l-1.1-1.1l-11.1 6.2l-10.9 12v0.6l4.3 4.3l0.5-0.1zm-3.2 5l4.7 5.1l3.5-3.5l-4.9-4.6zm0.7 33.3c-1.6-1.6-3.8-2.4-5.9-2.4c-2.1 0-4.2 0.8-5.9 2.4c-3.2 3.3-3.2 8.5 0 11.8c1.6 1.5 3.7 2.4 5.9 2.4c2.2 0 4.3-0.9 5.9-2.4c3.2-3.3 3.2-8.5 0-11.8zm17.1-12.3c-1.8-1.5-3.4-3-5.1-4.6l-9.7 9.7c-1.8 1.7-3.5 2.8-5.6 3.5l-0.2 0.1c1.7 0.4 3.3 1.3 4.5 2.6c1.3 1.3 2.2 2.8 2.6 4.5l0.1-0.2q0.9-2.7 3.4-5.6zm33.3 22.3q0-0.1-0.1-0.2c-2.6-2.3-15.5-14.5-19.9-18.9c-2.8-2.8-5-5.3-7.2-7.7c-1.8-2.1-3.6-4.1-5.5-6.1c-3.4-3.3-7.5-6.7-9-7.9l-3.7 3.7c1.2 1.5 4.6 5.6 8 8.9c1.9 2 3.9 3.8 6 5.6c2.4 2.2 4.9 4.4 7.7 7.2c4.4 4.4 16.6 17.3 19 19.9c0 0 0.1 0 0.1 0q0 0 0.1 0l4.4-4.4q0.1-0.1 0.1-0.1zm-50.1-4.1c0 0.8-0.7 1.2-1.3 1.5c-0.1 0.1-0.4 0.2-0.5 0.3c0 0.1 0.1 0.4 0.1 0.6c0.2 0.6 0.5 1.4-0.1 2c-0.5 0.5-1.4 0.3-2 0.1c-0.2-0.1-0.4-0.1-0.6-0.2c-0.1 0.2-0.2 0.4-0.3 0.6c-0.3 0.6-0.7 1.3-1.5 1.3c-0.7 0-1.1-0.7-1.5-1.3c0-0.2-0.2-0.4-0.3-0.6c-0.1 0.1-0.4 0.1-0.5 0.2c-0.7 0.2-1.5 0.4-2.1-0.1c-0.5-0.6-0.3-1.4-0.1-2c0.1-0.2 0.1-0.5 0.2-0.6c-0.2-0.1-0.4-0.2-0.6-0.3c-0.5-0.3-1.3-0.7-1.3-1.5c0-0.8 0.8-1.2 1.3-1.5c0.2-0.1 0.4-0.2 0.6-0.3c-0.1-0.2-0.1-0.4-0.2-0.6c-0.2-0.6-0.4-1.4 0.1-2c0.6-0.6 1.4-0.3 2.1-0.1c0.1 0 0.4 0.1 0.5 0.1c0.1-0.1 0.3-0.4 0.3-0.5c0.4-0.6 0.8-1.3 1.5-1.3c0.8 0 1.2 0.7 1.5 1.3c0.1 0.1 0.2 0.4 0.3 0.5c0.2 0 0.4-0.1 0.6-0.1c0.6-0.2 1.5-0.5 2 0.1c0.6 0.6 0.3 1.4 0.1 2c0 0.2-0.1 0.4-0.1 0.6c0.1 0.1 0.4 0.2 0.5 0.3c0.6 0.3 1.3 0.7 1.3 1.5zm-1.7 0q-0.2-0.1-0.3-0.2c-0.5-0.3-1-0.5-1.2-1c-0.2-0.5-0.1-1.1 0.1-1.6q0.1-0.2 0.1-0.4q-0.2 0.1-0.4 0.1c-0.5 0.2-1 0.3-1.5 0.1c-0.6-0.2-0.8-0.7-1.1-1.2q-0.1-0.1-0.2-0.3q-0.1 0.2-0.1 0.3c-0.3 0.5-0.6 1-1.1 1.2c-0.5 0.2-1 0.1-1.6-0.1q-0.1 0-0.4-0.1q0.1 0.2 0.2 0.4c0.1 0.5 0.3 1.1 0.1 1.6c-0.2 0.5-0.8 0.7-1.3 1q-0.1 0.1-0.2 0.2q0.1 0.1 0.2 0.1c0.5 0.3 1.1 0.6 1.3 1.1c0.2 0.5 0 1.1-0.1 1.6q-0.1 0.2-0.2 0.4q0.3-0.1 0.4-0.1c0.4-0.1 0.7-0.3 1.1-0.3q0.3 0 0.5 0.1c0.5 0.2 0.8 0.8 1.1 1.3q0 0.1 0.1 0.3q0.1-0.2 0.2-0.3c0.3-0.5 0.5-1.1 1.1-1.3c0.5-0.2 1 0 1.5 0.2q0.2 0 0.4 0.1q0-0.2-0.1-0.4c-0.2-0.5-0.3-1.1-0.1-1.6c0.2-0.5 0.7-0.8 1.2-1.1q0.1 0 0.3-0.1z" /></svg>